<?xml version="1.0" encoding="us-ascii" standalone="no"?><svg xmlns="http://www.w3.org/2000/svg" xmlns:xlink="http://www.w3.org/1999/xlink" contentStyleType="text/css" height="591px" preserveAspectRatio="none" style="width:543px;height:591px;background:#FFFFFF;" version="1.1" viewBox="0 0 543 591" width="543px" zoomAndPan="magnify"><defs/><g><text fill="#000000" font-family="sans-serif" font-size="14" font-weight="bold" lengthAdjust="spacing" textLength="315" x="107.25" y="24.5332">Arquitetura &#8212; Componentes (PEP / PDP / PIP)</text><!--entity Client--><g id="elem_Client"><ellipse cx="241" cy="52.6094" fill="#F1F1F1" rx="8" ry="8" style="stroke:#181818;stroke-width:0.5;"/><path d="M241,60.6094 L241,87.6094 M228,68.6094 L254,68.6094 M241,87.6094 L228,102.6094 M241,87.6094 L254,102.6094 " fill="none" style="stroke:#181818;stroke-width:0.5;"/><text fill="#000000" font-family="sans-serif" font-size="14" lengthAdjust="spacing" textLength="44" x="219" y="118.6426">Cliente</text></g><!--entity PEP--><g id="elem_PEP"><rect fill="#F1F1F1" height="55.2188" rx="2.5" ry="2.5" style="stroke:#181818;stroke-width:0.5;" width="78" x="202" y="202.1094"/><text fill="#000000" font-family="sans-serif" font-size="14" lengthAdjust="spacing" textLength="33" x="212" y="226.6426">Node</text><text fill="#000000" font-family="sans-serif" font-size="14" lengthAdjust="spacing" textLength="4" x="245" y="226.6426">&#160;</text><text fill="#000000" font-family="sans-serif" font-size="14" lengthAdjust="spacing" textLength="21" x="249" y="226.6426">API</text><text fill="#000000" font-family="sans-serif" font-size="14" lengthAdjust="spacing" textLength="43" x="212" y="244.252">&#171;PEP&#187;</text></g><!--entity PDP--><g id="elem_PDP"><rect fill="#F1F1F1" height="55.2188" rx="2.5" ry="2.5" style="stroke:#181818;stroke-width:0.5;" width="64" x="58" y="357.6094"/><text fill="#000000" font-family="sans-serif" font-size="14" lengthAdjust="spacing" textLength="29" x="68" y="382.1426">OPA</text><text fill="#000000" font-family="sans-serif" font-size="14" lengthAdjust="spacing" textLength="44" x="68" y="399.752">&#171;PDP&#187;</text></g><!--entity PIP--><g id="elem_PIP"><path d="M343.5,363.1094 C343.5,353.1094 392,353.1094 392,353.1094 C392,353.1094 440.5,353.1094 440.5,363.1094 L440.5,407.3281 C440.5,417.3281 392,417.3281 392,417.3281 C392,417.3281 343.5,417.3281 343.5,407.3281 L343.5,363.1094 " fill="#F1F1F1" style="stroke:#181818;stroke-width:0.5;"/><path d="M343.5,363.1094 C343.5,373.1094 392,373.1094 392,373.1094 C392,373.1094 440.5,373.1094 440.5,363.1094 " fill="none" style="stroke:#181818;stroke-width:0.5;"/><text fill="#000000" font-family="sans-serif" font-size="14" lengthAdjust="spacing" textLength="77" x="353.5" y="391.6426">PostgreSQL</text><text fill="#000000" font-family="sans-serif" font-size="14" lengthAdjust="spacing" textLength="37" x="353.5" y="409.252">&#171;PIP&#187;</text></g><!--entity DATA--><g id="elem_DATA"><path d="M8.5,511.1094 L49.5,511.1094 A3.75,3.75 0 0 1 52,513.6094 L59,532.1094 L171.5,532.1094 A2.5,2.5 0 0 1 174,534.6094 L174,581.8281 A2.5,2.5 0 0 1 171.5,584.3281 L8.5,584.3281 A2.5,2.5 0 0 1 6,581.8281 L6,513.6094 A2.5,2.5 0 0 1 8.5,511.1094 " fill="#F1F1F1" style="stroke:#181818;stroke-width:0.5;"/><line style="stroke:#181818;stroke-width:0.5;" x1="6" x2="59" y1="532.1094" y2="532.1094"/><text fill="#000000" font-family="sans-serif" font-size="14" lengthAdjust="spacing" textLength="48" x="16" y="553.6426">Policies</text><text fill="#000000" font-family="sans-serif" font-size="14" lengthAdjust="spacing" textLength="4" x="64" y="553.6426">&#160;</text><text fill="#000000" font-family="sans-serif" font-size="14" lengthAdjust="spacing" textLength="9" x="68" y="553.6426">&amp;</text><text fill="#000000" font-family="sans-serif" font-size="14" lengthAdjust="spacing" textLength="4" x="77" y="553.6426">&#160;</text><text fill="#000000" font-family="sans-serif" font-size="14" lengthAdjust="spacing" textLength="41" x="81" y="553.6426">Config</text><text fill="#000000" font-family="sans-serif" font-size="14" lengthAdjust="spacing" textLength="72" x="16" y="571.252">(data/*.json</text><text fill="#000000" font-family="sans-serif" font-size="14" lengthAdjust="spacing" textLength="4" x="88" y="571.252">&#160;</text><text fill="#000000" font-family="sans-serif" font-size="14" lengthAdjust="spacing" textLength="3" x="92" y="571.252">|</text><text fill="#000000" font-family="sans-serif" font-size="14" lengthAdjust="spacing" textLength="4" x="95" y="571.252">&#160;</text><text fill="#000000" font-family="sans-serif" font-size="14" lengthAdjust="spacing" textLength="55" x="99" y="571.252">bundles)</text></g><g id="elem_GMN11"><path d="M315.5,200.1094 L315.5,225.6094 L280.02,229.6094 L315.5,233.6094 L315.5,259.1641 A0,0 0 0 0 315.5,259.1641 L536.5,259.1641 A0,0 0 0 0 536.5,259.1641 L536.5,210.1094 L526.5,200.1094 L315.5,200.1094 A0,0 0 0 0 315.5,200.1094 " fill="#FEFFDD" style="stroke:#181818;stroke-width:0.5;"/><path d="M526.5,200.1094 L526.5,210.1094 L536.5,210.1094 L526.5,200.1094 " fill="#FEFFDD" style="stroke:#181818;stroke-width:0.5;"/><text fill="#000000" font-family="sans-serif" font-size="13" lengthAdjust="spacing" textLength="4" x="321.5" y="218.6045">-</text><text fill="#000000" font-family="sans-serif" font-size="13" lengthAdjust="spacing" textLength="4" x="325.5" y="218.6045">&#160;</text><text fill="#000000" font-family="sans-serif" font-size="13" lengthAdjust="spacing" textLength="37" x="329.5" y="218.6045">Coleta</text><text fill="#000000" font-family="sans-serif" font-size="13" lengthAdjust="spacing" textLength="4" x="366.5" y="218.6045">&#160;</text><text fill="#000000" font-family="sans-serif" font-size="13" lengthAdjust="spacing" textLength="50" x="370.5" y="218.6045">contexto</text><text fill="#000000" font-family="sans-serif" font-size="13" lengthAdjust="spacing" textLength="4" x="420.5" y="218.6045">&#160;</text><text fill="#000000" font-family="sans-serif" font-size="13" lengthAdjust="spacing" textLength="44" x="424.5" y="218.6045">(tenant,</text><text fill="#000000" font-family="sans-serif" font-size="13" lengthAdjust="spacing" textLength="4" x="468.5" y="218.6045">&#160;</text><text fill="#000000" font-family="sans-serif" font-size="13" lengthAdjust="spacing" textLength="46" x="472.5" y="218.6045">usu&#225;rio,</text><text fill="#000000" font-family="sans-serif" font-size="13" lengthAdjust="spacing" textLength="35" x="321.5" y="234.9561">canal,</text><text fill="#000000" font-family="sans-serif" font-size="13" lengthAdjust="spacing" textLength="4" x="356.5" y="234.9561">&#160;</text><text fill="#000000" font-family="sans-serif" font-size="13" lengthAdjust="spacing" textLength="47" x="360.5" y="234.9561">recurso)</text><text fill="#000000" font-family="sans-serif" font-size="13" lengthAdjust="spacing" textLength="4" x="321.5" y="251.3076">-</text><text fill="#000000" font-family="sans-serif" font-size="13" lengthAdjust="spacing" textLength="4" x="325.5" y="251.3076">&#160;</text><text fill="#000000" font-family="sans-serif" font-size="13" lengthAdjust="spacing" textLength="36" x="329.5" y="251.3076">Monta</text><text fill="#000000" font-family="sans-serif" font-size="13" lengthAdjust="spacing" textLength="4" x="365.5" y="251.3076">&#160;</text><text fill="#000000" font-family="sans-serif" font-size="13" lengthAdjust="spacing" textLength="28" x="369.5" y="251.3076">input</text><text fill="#000000" font-family="sans-serif" font-size="13" lengthAdjust="spacing" textLength="4" x="397.5" y="251.3076">&#160;</text><text fill="#000000" font-family="sans-serif" font-size="13" lengthAdjust="spacing" textLength="7" x="401.5" y="251.3076">e</text><text fill="#000000" font-family="sans-serif" font-size="13" lengthAdjust="spacing" textLength="4" x="408.5" y="251.3076">&#160;</text><text fill="#000000" font-family="sans-serif" font-size="13" lengthAdjust="spacing" textLength="34" x="412.5" y="251.3076">aplica</text><text fill="#000000" font-family="sans-serif" font-size="13" lengthAdjust="spacing" textLength="4" x="446.5" y="251.3076">&#160;</text><text fill="#000000" font-family="sans-serif" font-size="13" lengthAdjust="spacing" textLength="71" x="450.5" y="251.3076">enforcement</text></g><g id="elem_GMN14"><path d="M157.5,355.6094 L157.5,381.1094 L122.12,385.1094 L157.5,389.1094 L157.5,414.6641 A0,0 0 0 0 157.5,414.6641 L308.5,414.6641 A0,0 0 0 0 308.5,414.6641 L308.5,365.6094 L298.5,355.6094 L157.5,355.6094 A0,0 0 0 0 157.5,355.6094 " fill="#FEFFDD" style="stroke:#181818;stroke-width:0.5;"/><path d="M298.5,355.6094 L298.5,365.6094 L308.5,365.6094 L298.5,355.6094 " fill="#FEFFDD" style="stroke:#181818;stroke-width:0.5;"/><text fill="#000000" font-family="sans-serif" font-size="13" lengthAdjust="spacing" textLength="4" x="163.5" y="374.1045">-</text><text fill="#000000" font-family="sans-serif" font-size="13" lengthAdjust="spacing" textLength="4" x="167.5" y="374.1045">&#160;</text><text fill="#000000" font-family="sans-serif" font-size="13" lengthAdjust="spacing" textLength="34" x="171.5" y="374.1045">Avalia</text><text fill="#000000" font-family="sans-serif" font-size="13" lengthAdjust="spacing" textLength="4" x="205.5" y="374.1045">&#160;</text><text fill="#000000" font-family="sans-serif" font-size="13" lengthAdjust="spacing" textLength="48" x="209.5" y="374.1045">pol&#237;ticas</text><text fill="#000000" font-family="sans-serif" font-size="13" lengthAdjust="spacing" textLength="4" x="257.5" y="374.1045">&#160;</text><text fill="#000000" font-family="sans-serif" font-size="13" lengthAdjust="spacing" textLength="30" x="261.5" y="374.1045">Rego</text><text fill="#000000" font-family="sans-serif" font-size="13" lengthAdjust="spacing" textLength="4" x="163.5" y="390.4561">-</text><text fill="#000000" font-family="sans-serif" font-size="13" lengthAdjust="spacing" textLength="4" x="167.5" y="390.4561">&#160;</text><text fill="#000000" font-family="sans-serif" font-size="13" lengthAdjust="spacing" textLength="45" x="171.5" y="390.4561">Retorna</text><text fill="#000000" font-family="sans-serif" font-size="13" lengthAdjust="spacing" textLength="4" x="216.5" y="390.4561">&#160;</text><text fill="#000000" font-family="sans-serif" font-size="13" lengthAdjust="spacing" textLength="61" x="220.5" y="390.4561">allow/deny</text><text fill="#000000" font-family="sans-serif" font-size="13" lengthAdjust="spacing" textLength="4" x="281.5" y="390.4561">&#160;</text><text fill="#000000" font-family="sans-serif" font-size="13" lengthAdjust="spacing" textLength="8" x="285.5" y="390.4561">+</text><text fill="#000000" font-family="sans-serif" font-size="13" lengthAdjust="spacing" textLength="105" x="163.5" y="406.8076">reason/obligations</text></g><!--link Client to PEP--><g id="link_Client_PEP"><path d="M241,122.4494 C241,147.5394 241,173.6694 241,195.9794 " fill="none" id="Client-to-PEP" style="stroke:#181818;stroke-width:1.0;"/><polygon fill="#181818" points="241,201.9794,245,192.9794,241,196.9794,237,192.9794,241,201.9794" style="stroke:#181818;stroke-width:1.0;"/><text fill="#000000" font-family="sans-serif" font-size="13" lengthAdjust="spacing" textLength="32" x="242" y="166.6045">HTTP</text><text fill="#000000" font-family="sans-serif" font-size="13" lengthAdjust="spacing" textLength="4" x="274" y="166.6045">&#160;</text><text fill="#000000" font-family="sans-serif" font-size="13" lengthAdjust="spacing" textLength="42" x="278" y="166.6045">(REST)</text></g><!--link PEP to PDP--><g id="link_PEP_PDP"><path d="M214.7,257.3494 C187.07,285.4394 148.0782,325.0726 120.4582,353.1426 " fill="none" id="PEP-to-PDP" style="stroke:#181818;stroke-width:1.0;"/><polygon fill="#181818" points="116.25,357.4194,125.4135,353.8097,119.7569,353.8554,119.7111,348.1987,116.25,357.4194" style="stroke:#181818;stroke-width:1.0;"/><text fill="#000000" font-family="sans-serif" font-size="13" lengthAdjust="spacing" textLength="47" x="181" y="303.6045">Decis&#227;o</text><text fill="#000000" font-family="sans-serif" font-size="13" lengthAdjust="spacing" textLength="4" x="228" y="303.6045">&#160;</text><text fill="#000000" font-family="sans-serif" font-size="13" lengthAdjust="spacing" textLength="42" x="232" y="303.6045">(REST)</text><text fill="#000000" font-family="sans-serif" font-size="13" lengthAdjust="spacing" textLength="61" x="197" y="319.9561">/v1/data/...</text></g><!--link PEP to PIP--><g id="link_PEP_PIP"><path d="M267.3,257.3494 C293.5,283.9794 329.4718,320.5526 357.1118,348.6426 " fill="none" id="PEP-to-PIP" style="stroke:#181818;stroke-width:1.0;stroke-dasharray:7.0,7.0;"/><polygon fill="#181818" points="361.32,352.9194,357.8588,343.6987,357.8131,349.3554,352.1565,349.3097,361.32,352.9194" style="stroke:#181818;stroke-width:1.0;"/><text fill="#000000" font-family="sans-serif" font-size="13" lengthAdjust="spacing" textLength="58" x="332" y="303.6045">Consultas</text><text fill="#000000" font-family="sans-serif" font-size="13" lengthAdjust="spacing" textLength="4" x="390" y="303.6045">&#160;</text><text fill="#000000" font-family="sans-serif" font-size="13" lengthAdjust="spacing" textLength="14" x="394" y="303.6045">de</text><text fill="#000000" font-family="sans-serif" font-size="13" lengthAdjust="spacing" textLength="4" x="408" y="303.6045">&#160;</text><text fill="#000000" font-family="sans-serif" font-size="13" lengthAdjust="spacing" textLength="45" x="412" y="303.6045">dom&#237;nio</text><text fill="#000000" font-family="sans-serif" font-size="13" lengthAdjust="spacing" textLength="60" x="364.5" y="319.9561">SQL/ORM</text></g><!--link PDP to DATA--><g id="link_PDP_DATA"><path d="M90,412.6094 C90,439.4994 90,496.2894 90,526.0494 " fill="none" id="PDP-to-DATA" style="stroke:#181818;stroke-width:1.0;stroke-dasharray:7.0,7.0;"/><polygon fill="#181818" points="90,532.0494,94,523.0494,90,527.0494,86,523.0494,90,532.0494" style="stroke:#181818;stroke-width:1.0;"/><text fill="#000000" font-family="sans-serif" font-size="13" lengthAdjust="spacing" textLength="94" x="91" y="461.6045">Carrega/atualiza</text><text fill="#000000" font-family="sans-serif" font-size="13" lengthAdjust="spacing" textLength="34" x="104.5" y="477.9561">(Rego</text><text fill="#000000" font-family="sans-serif" font-size="13" lengthAdjust="spacing" textLength="4" x="138.5" y="477.9561">&#160;</text><text fill="#000000" font-family="sans-serif" font-size="13" lengthAdjust="spacing" textLength="29" x="142.5" y="477.9561">data)</text></g><!--SRC=[PLBBZjD04BpFLxHoG0aazi8HhI9PwvM8H5YJHEAIIyVkU0V6CsQclIznu2Fu0SHvlo9_mfVGCu4e4XThD5NTLLDbrcm82lzrq4myU8JVtt_0bUjwPyao1HXNrnNaK9NfkwWcIeKlslReiOFw7t7DZxB7KyreMqDdb7kF_IVTy2sykRWuk-_mOKaXO4jh_KG9L5Ypyp2wCZfgZm037CzAdPHWzC4rOhbQREtbfPYRpnDHJkUacwf8U7d2oqeroBZ3G02ZoWLkFQq_la-qnOcsgDJUcOOyGA8PNMk9uOM4OlUwtTfnt9A_p3u7P-4Rx0RR60gJD5qMcqAfesUOpURH5Ro5TvjD1UFLzNepKV4c8H8e25PIhSFXb_kBRsr-zpfF4bcM9NQMpQEjn1OJOJ0iKf91uxh3izLkQ-KP-SrggUBII8y-4XszfnPpv06DVa9nlwBMGTmlHLh7KffkRndSFYK8C1CDGupIhNJmm6ACoQBbAGnXEFpqsasXHejc6liUV72JDBOKFeBKEp0GO2_18P3TErzJ5piasq1K_4-tFEeMT-8HeNVcyCmo721wJT2AvCUm26YCkyyRie_mIjHHAiZTpkWMMKio9ua_]--></g></svg>